<svg width="50" height="50" viewBox="0 0 50 50" fill="none" xmlns="http://www.w3.org/2000/svg">
<path d="M24.7113 7.52871C21.8852 7.78256 19.5206 8.00106 19.4567 8.01392C19.2295 8.05569 18.839 8.24849 18.6685 8.40272C18.42 8.62444 18.3312 8.78832 18.1892 9.27674C17.923 10.2118 18.0472 10.4914 18.7289 10.4817C18.8851 10.4785 20.7668 10.395 22.9148 10.2953C27.1184 10.0961 27.0439 10.0961 27.3102 10.2568C27.3918 10.3082 27.4557 10.3885 27.5125 10.5203C27.5977 10.7099 27.6013 10.7484 27.6439 12.2073C27.7114 14.4373 27.7078 14.6718 27.619 14.8903C27.5693 15.0157 27.4806 15.1313 27.3421 15.2567C26.9942 15.5812 27.3066 15.5459 22.8118 15.7708L18.8709 15.9732L18.6721 15.9057C18.562 15.8672 18.4129 15.7901 18.3419 15.7322C18.2212 15.639 18.2034 15.6005 18.1218 15.2792C18.0756 15.0864 18.0366 14.8807 18.0366 14.8164C18.0366 14.553 18.3135 14.3602 18.6934 14.3602C18.807 14.3602 19.6129 14.4051 20.4828 14.4598C22.1941 14.5658 22.3858 14.5626 22.6379 14.4244C22.8615 14.2991 22.8793 14.222 22.9929 13.0813C23.0852 12.143 23.0888 12.0337 23.0426 11.9116C22.9112 11.5807 22.7231 11.5614 20.9692 11.7092C15.04 12.2073 15.143 12.1976 14.9619 12.2683C14.7383 12.3583 14.6424 12.4418 14.5323 12.641C14.3513 12.9624 14.3477 12.9527 14.9832 15.3884C15.2992 16.5998 15.5939 17.6634 15.6401 17.7566C15.814 18.1036 16.2294 18.3928 16.6626 18.4699C16.7726 18.4892 19.4674 18.5246 23.3976 18.5567L29.9481 18.6113L30.1966 18.5438C30.8392 18.3671 31.1872 17.9205 31.2298 17.22C31.2404 17.0529 31.3114 14.9771 31.386 12.6089C31.4641 10.2407 31.5351 8.19065 31.5458 8.05248C31.5742 7.72472 31.5032 7.49337 31.3221 7.32949C31.1233 7.14954 30.896 7.0917 30.3209 7.07885C29.909 7.06921 29.1209 7.13348 24.7113 7.52871Z" fill="#0076ED"/>
<path d="M24.8674 11.6134C24.1929 11.7612 23.6958 12.2914 23.6532 12.9019C23.6141 13.5092 23.923 14.0073 24.5088 14.2772C25.187 14.5889 25.9965 14.4668 26.4971 13.9751C26.7917 13.6891 26.9089 13.4128 26.9125 13.0111C26.9125 12.4617 26.5929 11.9925 26.0533 11.7483C25.6592 11.5684 25.2686 11.5234 24.8674 11.6134Z" fill="#0076ED"/>
<path d="M34.2261 11.87C33.516 12.0146 32.9018 12.5062 32.6639 13.1167C32.5645 13.3642 32.529 13.9072 32.5929 14.1771C32.7101 14.688 33.1787 15.2343 33.6935 15.4624C34.0521 15.6199 34.3184 15.6777 34.7054 15.6777C35.2379 15.6777 35.7101 15.5235 36.0829 15.2311C36.5871 14.8359 36.8285 14.3667 36.8321 13.7819C36.8356 13.3063 36.7042 12.9464 36.3918 12.5737C35.9196 12.0082 35.0072 11.7093 34.2261 11.87Z" fill="#0076ED"/>
<path d="M39.5519 15.1121C39.2821 15.2053 31.7801 18.9359 31.599 19.0644C31.2547 19.3119 31.1552 19.6364 31.315 19.977C31.3541 20.0605 31.6061 20.6679 31.8795 21.3266C32.3908 22.5669 32.5221 22.8143 32.7458 22.9429C32.9624 23.0682 33.0724 23.0328 34.9186 22.2809C36.8501 21.4937 37.0702 21.3941 37.1909 21.2623C37.3045 21.1402 37.3081 20.9346 37.2051 20.745C37.0453 20.4622 36.669 20.0188 36.527 19.9481C36.4915 19.932 36.385 19.9031 36.2891 19.887C36.0228 19.842 35.8524 19.9031 35.0962 20.324C34.3648 20.7321 34.0204 20.8992 33.8535 20.9281C33.6405 20.9667 33.4275 20.7578 33.3849 20.4654C33.36 20.3048 33.4523 20.1377 33.6157 20.0381C33.8642 19.887 38.6252 17.702 38.7069 17.702C38.8347 17.7052 39.0619 17.8113 39.1969 17.9366C39.3708 18.094 40.5318 20.1666 40.5637 20.3722C40.5957 20.5586 40.5318 20.6775 40.3401 20.7964C40.2655 20.8446 39.0442 21.3394 37.6311 21.8921C34.8299 22.9879 34.7979 23.0039 34.6417 23.322C34.5565 23.4988 34.5743 23.6755 34.7198 24.0707C34.9328 24.6652 35.1672 24.8034 35.7068 24.6459C35.8986 24.5913 43.0987 21.8343 43.3153 21.7347C43.6171 21.5933 43.7733 21.2141 43.6703 20.8767C43.649 20.8125 42.9922 19.5753 42.2111 18.1294C40.6845 15.3049 40.7058 15.3338 40.3401 15.1731C40.1129 15.0735 39.7436 15.0446 39.5519 15.1121Z" fill="#0076ED"/>
<path d="M8.7522 16.562C8.53208 16.6294 8.34035 16.8447 8.23029 17.1436C8.17704 17.2817 7.72259 18.567 7.22198 20.0002C6.32374 22.5708 6.31309 22.6061 6.33084 22.8343C6.35924 23.3002 6.61842 23.5926 7.11902 23.7276C7.27524 23.7694 9.2102 24.2417 11.415 24.7783C15.4198 25.752 15.4269 25.752 15.7855 25.752C16.1121 25.752 16.1547 25.7455 16.2826 25.6684C16.4601 25.5624 16.453 25.572 17.1666 24.0489C17.9157 22.4583 17.9583 22.2752 17.6388 22.0245C17.5571 21.9635 17.479 21.9121 17.4613 21.9121C17.4471 21.9121 16.5914 21.6454 15.5583 21.3144C13.5417 20.675 13.3535 20.63 13.1405 20.7424C12.9807 20.826 12.9026 21.0059 12.8209 21.4462C12.7286 21.9699 12.7819 22.1948 13.0411 22.3748C13.2079 22.4905 13.2825 22.5097 14.1843 22.6865C15.1961 22.8857 15.3559 22.9307 15.505 23.056C15.647 23.1781 15.6577 23.3066 15.537 23.5187C15.4305 23.7083 15.2671 23.8079 15.0648 23.8079C14.834 23.8079 9.63269 22.4101 9.51908 22.317C9.41612 22.2334 9.35221 22.1017 9.32026 21.9057C9.29896 21.7707 9.33801 21.6261 9.6753 20.6043C10.0623 19.4314 10.1688 19.1904 10.325 19.0972C10.5203 18.9816 10.6907 19.0265 13.4565 19.952C15.1926 20.5304 16.1299 20.8292 16.2613 20.8388C16.4956 20.8613 16.7335 20.8099 16.8897 20.7039C17.0281 20.6075 17.3796 19.9905 17.4151 19.7785C17.4613 19.515 17.3122 19.3061 16.9784 19.1615C16.911 19.1326 15.1393 18.5253 13.0411 17.8119C8.97232 16.427 9.07883 16.4591 8.7522 16.562Z" fill="#0076ED"/>
<path d="M37.9647 18.8852C37.7268 18.9752 37.5103 19.1584 37.3966 19.364C37.3114 19.5247 37.2972 19.5889 37.3008 19.8074C37.3043 20.1191 37.386 20.3055 37.6061 20.5079C37.8333 20.7136 38.057 20.7971 38.3801 20.8003C38.618 20.8036 38.6783 20.7907 38.8772 20.6975C39.2961 20.5079 39.5056 20.1738 39.4736 19.7464C39.4452 19.3833 39.2322 19.0812 38.8878 18.9238C38.6606 18.8178 38.1919 18.7985 37.9647 18.8852Z" fill="#0076ED"/>
<path d="M10.9997 20.0444C10.2683 20.2629 10.0127 21.0341 10.4742 21.6222C10.5843 21.7635 10.8328 21.9049 11.0636 21.9595C11.4648 22.0527 11.8837 21.9306 12.1713 21.635C12.3701 21.4326 12.4411 21.2301 12.4198 20.9152C12.4021 20.6421 12.3027 20.4397 12.0932 20.2629C11.8163 20.0284 11.3583 19.9352 10.9997 20.0444Z" fill="#0076ED"/>
<path d="M39.5091 23.8045C39.2783 23.8719 39.0547 24.0165 38.9197 24.1804C38.515 24.6753 38.6961 25.3982 39.2925 25.6714C39.4914 25.7613 39.8783 25.7935 40.1056 25.7388C40.7198 25.591 41.0642 24.913 40.8014 24.3732C40.6346 24.0326 40.2653 23.8077 39.8428 23.7884C39.7115 23.782 39.5624 23.7884 39.5091 23.8045Z" fill="#0076ED"/>
<path d="M34.0735 25.0924C33.9244 25.1342 33.7539 25.2627 33.6829 25.3849C33.5409 25.6451 32.4687 27.8912 32.4119 28.0583C32.3267 28.2961 32.3231 28.5692 32.4048 28.6945C32.4367 28.7459 32.5468 28.8231 32.6462 28.8681C32.845 28.958 36.0688 30.0184 36.4274 30.1116C36.8428 30.2176 37.0629 30.163 37.1872 29.9284C37.2617 29.787 37.386 29.1926 37.386 28.9837C37.3824 28.7235 37.2262 28.5082 36.9422 28.3764C36.9031 28.3604 36.4771 28.264 35.9942 28.1643C35.0392 27.9683 34.78 27.8944 34.638 27.7755C34.3788 27.557 34.7125 27.0204 35.1066 27.0204C35.167 27.0204 36.4203 27.3546 37.8901 27.7627C40.7659 28.5596 40.7091 28.5403 40.7908 28.7845C40.8724 29.0384 40.8405 29.183 40.4713 30.2626C40.0346 31.5479 40.031 31.5544 39.889 31.7022C39.7789 31.8178 39.7612 31.8243 39.5659 31.8211C39.3422 31.8178 39.5517 31.8853 35.4333 30.4779C34.5883 30.1887 33.9918 30.0023 33.8711 29.9895C33.4344 29.9445 33.1859 30.0987 32.916 30.5904C32.7208 30.9406 32.6711 31.1334 32.735 31.3069C32.7776 31.429 32.9551 31.5801 33.1575 31.6668C33.2249 31.6957 34.9895 32.3191 37.0771 33.0485C41.1991 34.4913 41.0606 34.4495 41.3802 34.3178C41.5435 34.2503 41.6997 34.1186 41.7813 33.9772C41.8098 33.9258 42.282 32.6437 42.8323 31.1334C43.7909 28.4792 43.8264 28.3764 43.8264 28.129C43.8299 27.9266 43.8122 27.8366 43.7483 27.7113C43.6595 27.5378 43.4607 27.3321 43.3116 27.2614C43.2086 27.2132 35.1386 25.1792 34.7587 25.1053C34.5031 25.0571 34.2261 25.0507 34.0735 25.0924Z" fill="#0076ED"/>
<path d="M10.0588 25.151C9.12502 25.453 9.04337 26.6098 9.92741 27.0018C10.0907 27.0757 10.1759 27.0918 10.3819 27.0918C10.8363 27.0886 11.1984 26.8926 11.3866 26.5488C11.4718 26.3913 11.486 26.3238 11.486 26.1053C11.4825 25.784 11.3866 25.5687 11.1594 25.3791C10.8541 25.1253 10.4209 25.0353 10.0588 25.151Z" fill="#0076ED"/>
<path d="M14.7879 26.0475C14.7489 26.0571 13.0234 26.7512 10.9535 27.5898C7.94989 28.8109 7.16171 29.1419 7.05874 29.2318C6.87767 29.3893 6.80667 29.5692 6.82442 29.8231C6.83862 30.0159 6.90253 30.138 8.31558 32.6283C9.36649 34.4791 9.83514 35.276 9.94165 35.3853C10.1476 35.5973 10.389 35.7034 10.7085 35.7227C10.9287 35.7355 10.989 35.7259 11.1523 35.6584C11.5784 35.4785 18.807 31.6996 18.9809 31.5647C19.1939 31.404 19.3147 31.2016 19.3147 31.0184C19.3147 30.9317 19.1371 30.4882 18.7217 29.5435C18.3987 28.8012 18.0933 28.1361 18.0436 28.0654C17.8377 27.7634 17.6495 27.6477 17.4152 27.6766C17.2625 27.6991 13.7938 29.1772 13.5027 29.3443C13.421 29.3925 13.3252 29.4664 13.2932 29.5082C13.2187 29.6142 13.2222 29.8456 13.3003 29.9805C13.3784 30.1251 13.7725 30.62 13.8648 30.6939C14.0707 30.861 14.4648 30.9059 14.7205 30.7871C14.7986 30.7517 15.1749 30.5396 15.5548 30.3211C16.343 29.8648 16.485 29.7942 16.6767 29.7652C16.7939 29.7492 16.8329 29.7588 16.9253 29.8295C17.1773 30.0223 17.2164 30.3822 16.9998 30.575C16.8187 30.7389 12.0293 33.0621 11.8731 33.0621C11.6991 33.0621 11.5429 32.9946 11.3867 32.85C11.2375 32.7118 10.073 30.7774 9.98781 30.5236C9.8884 30.2279 10.002 30.0769 10.5026 29.852C10.6517 29.7845 11.8198 29.2993 13.0944 28.7723C15.5655 27.7505 15.6471 27.7119 15.7962 27.4292C15.8388 27.3521 15.8708 27.2364 15.8708 27.1721C15.8708 27.0243 15.6791 26.4716 15.5655 26.2917C15.4305 26.0796 15.3276 26.025 15.0755 26.0282C14.9583 26.0314 14.827 26.041 14.7879 26.0475Z" fill="#0076ED"/>
<path d="M38.4406 28.9293C38.1459 29.0289 37.8974 29.2507 37.7731 29.527C37.7447 29.5945 37.7234 29.7455 37.7234 29.8965C37.7269 30.1247 37.7376 30.1761 37.8406 30.3464C38.1991 30.9344 39.0796 31.0597 39.5802 30.5906C40.1021 30.1022 39.9672 29.2828 39.314 28.9936C39.069 28.8843 38.6642 28.8554 38.4406 28.9293Z" fill="#0076ED"/>
<path d="M11.7771 30.0222C11.4433 30.1314 11.1877 30.3853 11.0954 30.7034C11.0244 30.9476 11.0279 31.0215 11.1131 31.2657C11.2019 31.5292 11.3936 31.7349 11.667 31.857C11.841 31.9341 11.9226 31.9502 12.1428 31.9502C12.6079 31.9534 12.9416 31.7734 13.1404 31.4071C13.2434 31.2143 13.2505 31.1822 13.2363 30.9348C13.2114 30.517 13.0126 30.2343 12.6221 30.0672C12.4481 29.9933 12.3629 29.9772 12.1605 29.9772C12.0256 29.9804 11.8516 29.9997 11.7771 30.0222Z" fill="#0076ED"/>
<path d="M31.457 30.944C31.4073 30.9633 30.7256 31.1786 29.9374 31.426C28.5066 31.8727 28.2581 31.9723 28.0486 32.1747C27.864 32.3579 27.8889 32.4254 28.7054 34.1862C29.5185 35.9471 29.6356 36.1753 29.7706 36.2684C29.9907 36.4259 30.2002 36.3905 30.6759 36.1142C31.2262 35.7929 31.3256 35.674 31.3221 35.3237C31.3221 35.1245 31.3008 35.0892 30.7363 34.1991C30.3457 33.5821 30.2144 33.3283 30.2144 33.1901C30.2144 33.0937 30.4096 32.917 30.5623 32.8752C30.8215 32.8045 30.9954 32.8399 31.1623 33.0037C31.2759 33.113 33.6582 37.6277 33.6582 37.7337C33.6582 37.9554 33.4204 38.1996 33.0369 38.3731C32.0215 38.8326 30.8037 39.3275 30.6475 39.3468C30.4877 39.366 30.4629 39.3596 30.3422 39.26C30.2676 39.2054 30.1718 39.0897 30.1291 39.0094C30.083 38.929 29.6037 37.8622 29.0605 36.6444C28.5173 35.4233 28.0522 34.3822 28.0202 34.3308C27.9492 34.2023 27.8143 34.0577 27.6829 33.9677C27.4628 33.8231 26.6782 33.9035 26.2805 34.1123C26.0675 34.228 26.0107 34.3373 26.032 34.6168C26.0498 34.8257 26.1882 35.1599 27.548 38.2832C28.3753 40.1726 29.064 41.7471 29.0853 41.7857C29.1421 41.8853 29.2984 42.0266 29.4049 42.0781C29.4652 42.107 29.6143 42.123 29.8096 42.123H30.122L32.9268 40.9631C34.4713 40.3236 35.8311 39.7581 35.9447 39.7034C36.3352 39.5139 36.5553 39.1604 36.5269 38.7555C36.5127 38.5434 36.4808 38.4856 34.4855 34.9671C33.1257 32.5667 32.4085 31.3393 32.3126 31.2332C32.231 31.1433 32.1103 31.0404 32.0428 31.0051C31.9008 30.9248 31.5848 30.8926 31.457 30.944Z" fill="#0076ED"/>
<path d="M21.4201 31.8858C21.3597 31.9307 21.2887 32.0143 21.2568 32.0721C21.2284 32.13 20.9266 32.9301 20.5928 33.8491C20.0709 35.2629 19.9751 35.5553 19.9609 35.761C19.9467 35.9763 19.9538 36.0116 20.0283 36.0952C20.1348 36.2173 20.2946 36.2719 20.6816 36.3265C21.0544 36.3779 21.3704 36.3843 21.4911 36.3426C21.6331 36.2912 21.8248 36.1241 21.8994 35.9763C21.9349 35.9024 22.0449 35.4878 22.1373 35.054C22.2296 34.6235 22.3361 34.1897 22.3751 34.0933C22.5136 33.7559 22.6876 33.6948 23.0391 33.8523C23.2556 33.9519 23.3621 34.0836 23.3621 34.2604C23.3621 34.3632 21.9668 39.0096 21.871 39.2313C21.7858 39.4177 21.3775 39.5494 21.0721 39.4884C20.6567 39.4048 18.6046 38.865 18.4662 38.804C18.381 38.7654 18.2815 38.6979 18.2425 38.6529C18.0934 38.4826 18.136 38.3445 19.1194 35.7931C19.6307 34.466 20.039 33.3574 20.0496 33.2642C20.0603 33.1743 20.0496 33.0297 20.0283 32.9429C19.9573 32.6891 19.8473 32.5927 19.3999 32.3967C19.0591 32.2424 18.9668 32.2167 18.7857 32.2135C18.5407 32.2103 18.4342 32.2649 18.2744 32.477C18.2141 32.5605 17.6496 33.9487 16.7939 36.1305C15.2779 39.9864 15.3241 39.8515 15.4838 40.1535C15.562 40.2981 15.7572 40.4588 15.9276 40.5166C15.9844 40.5391 17.401 40.9215 19.0733 41.3714C22.4284 42.2711 22.368 42.2582 22.7799 42.1201C23.0142 42.0397 23.2414 41.8501 23.3337 41.6573C23.3834 41.5577 25.1693 35.0958 25.4427 34.0322C25.5527 33.6081 25.4995 33.2257 25.3113 33.0425C25.2261 32.959 25.3006 32.9879 23.5574 32.3517C22.1763 31.844 22.1302 31.8279 21.8355 31.8151C21.5479 31.8022 21.523 31.8054 21.4201 31.8858Z" fill="#0076ED"/>
<path d="M35.8912 33.6211C35.6711 33.6725 35.419 33.8139 35.3125 33.9392C35.1172 34.1738 35.064 34.3184 35.064 34.5883C35.064 34.8068 35.0782 34.8743 35.1669 35.0317C35.3551 35.3756 35.6995 35.5684 36.1291 35.5684C36.4877 35.5684 36.69 35.4977 36.9279 35.2824C37.1658 35.0671 37.2439 34.8871 37.2439 34.5562C37.2439 34.3634 37.2261 34.2927 37.1338 34.1288C37.077 34.0196 36.9741 33.8942 36.9137 33.846C36.6474 33.6404 36.2143 33.5472 35.8912 33.6211Z" fill="#0076ED"/>
<path d="M15.1714 34.2151C14.8945 34.2794 14.6247 34.4818 14.4791 34.7324C14.4117 34.8545 14.3975 34.9252 14.3975 35.1823C14.3975 35.4618 14.4081 35.5036 14.504 35.6611C14.717 36.0113 15.0933 36.1945 15.5371 36.172C16.0874 36.1398 16.4957 35.7896 16.5667 35.2883C16.62 34.8963 16.3324 34.4432 15.9241 34.2794C15.7324 34.2022 15.3632 34.1701 15.1714 34.2151Z" fill="#0076ED"/>
<path d="M30.9776 36.445C30.5374 36.6024 30.2888 36.9045 30.2569 37.3222C30.2356 37.6339 30.3101 37.8299 30.5374 38.0548C30.7717 38.2862 30.9989 38.3762 31.3504 38.373C31.7871 38.373 32.1457 38.1705 32.3303 37.8235C32.4155 37.6693 32.4297 37.5986 32.4297 37.3833C32.4297 36.9623 32.2416 36.6828 31.8404 36.4996C31.6522 36.4161 31.5847 36.4032 31.354 36.4064C31.2048 36.4064 31.038 36.4257 30.9776 36.445Z" fill="#0076ED"/>
<path d="M20.0246 36.722C19.7051 36.8184 19.4459 37.0144 19.3075 37.2683C19.1939 37.4739 19.1903 37.8949 19.3039 38.1134C19.3962 38.2965 19.6163 38.4958 19.84 38.5922C20.0743 38.695 20.5359 38.6982 20.7809 38.5954C21.6117 38.2515 21.6152 37.143 20.7844 36.7895C20.5998 36.7124 20.1809 36.6738 20.0246 36.722Z" fill="#0076ED"/>
<path d="M25.7655 37.4644C25.5241 37.5029 25.2471 37.6539 25.0945 37.8339C24.6578 38.3544 24.8956 39.1353 25.5631 39.3634C25.8187 39.4502 26.2519 39.4373 26.472 39.3345C26.9833 39.0967 27.214 38.5055 26.9762 38.0363C26.7631 37.6186 26.2732 37.3872 25.7655 37.4644Z" fill="#0076ED"/>
</svg>
